<svg width="438" height="144" viewBox="0 0 438 144" fill="none" xmlns="http://www.w3.org/2000/svg">
<g id="autoridade soberana">
<path d="M30.55 54.32C30.01 54.06 29.57 53.64 29.21 53.06C28.85 52.48 28.42 51.5 27.91 50.14L18.94 25.47C18.02 22.96 17.44 21.14 17.2 20.01H16.92C16.2 20.92 15.08 21.56 13.57 21.94L14.42 24.1L5.22 49.66C4.56 51.44 3.84 52.7 3.05 53.46C2.26 54.21 1.25 54.68 0.01 54.85V55.17H9.92V54.85C8.44 54.75 7.37 54.5 6.71 54.08C6.05 53.67 5.72 53.02 5.72 52.17C5.72 51.53 5.88 50.78 6.2 49.92L9.11 41.73H21.04L24.62 51.69C24.87 52.39 24.99 52.91 24.99 53.25C24.99 53.8 24.71 54.2 24.15 54.46C23.6 54.71 22.62 54.85 21.23 54.86V55.18H32.93V54.86C31.95 54.78 31.15 54.6 30.55 54.33V54.32ZM9.44 40.88L15.08 25.09L20.73 40.88H9.44ZM46.75 55.63C38.64 55.63 34.59 51.44 34.59 43.05V23.68C34.59 22.76 34.35 22.15 33.87 21.86C33.39 21.57 32.33 21.37 30.69 21.27V20.95H42.1V21.27C40.46 21.36 39.4 21.56 38.92 21.86C38.44 22.16 38.2 22.77 38.2 23.68V42.75C38.2 46.59 39.06 49.46 40.79 51.37C42.52 53.27 44.97 54.23 48.13 54.23C51.29 54.23 53.85 53.3 55.62 51.43C57.39 49.56 58.27 46.7 58.27 42.85V26.17C58.27 24.32 57.91 23.08 57.18 22.44C56.45 21.81 54.98 21.42 52.76 21.28V20.96H63.87V21.28C62.06 21.42 60.84 21.81 60.21 22.46C59.58 23.11 59.26 24.35 59.26 26.17V42.85C59.26 47.16 58.19 50.37 56.05 52.48C53.91 54.58 50.81 55.64 46.76 55.64L46.75 55.63ZM73.21 55.18V54.86C74.85 54.77 75.9 54.57 76.38 54.27C76.85 53.97 77.09 53.36 77.09 52.45V21.72H73.67C71.88 21.72 70.48 21.9 69.46 22.27C68.44 22.64 67.56 23.3 66.81 24.24C66.03 25.25 65.25 26.74 64.47 28.71H64.13L65.74 20.68C66.67 20.86 68.2 20.96 70.31 20.96H87.59C89.67 20.96 91.18 20.87 92.11 20.68L93.74 28.71H93.37C92.54 26.71 91.76 25.22 91.02 24.25C90.28 23.28 89.4 22.6 88.39 22.22C87.3 21.88 85.9 21.72 84.17 21.72H80.73V52.45C80.73 53.37 80.97 53.98 81.45 54.27C81.93 54.56 82.99 54.76 84.63 54.86V55.18H73.21ZM126.92 28.71C125.44 26.11 123.42 24.09 120.85 22.65C118.29 21.21 115.42 20.49 112.26 20.49C109.1 20.49 106.16 21.24 103.54 22.74C100.88 24.29 98.79 26.43 97.26 29.18C95.74 31.93 94.98 35.03 94.98 38.49C94.98 41.95 95.71 44.78 97.19 47.41C98.64 50.01 100.63 52.03 103.17 53.47C105.7 54.91 108.52 55.63 111.62 55.63C114.91 55.63 117.87 54.86 120.5 53.34C123.21 51.82 125.32 49.69 126.85 46.95C128.38 44.21 129.14 41.1 129.14 37.65C129.14 34.2 128.4 31.38 126.91 28.72L126.92 28.71ZM123.34 47.26C122.24 49.69 120.74 51.57 118.85 52.88C116.95 54.2 114.83 54.86 112.47 54.86C109.93 54.86 107.65 54.07 105.61 52.5C103.56 50.92 101.97 48.8 100.83 46.11C99.69 43.43 99.12 40.46 99.12 37.19C99.12 32.51 100.28 28.69 102.62 25.73C104.95 22.77 107.91 21.29 111.49 21.29C114.08 21.29 116.41 22.08 118.49 23.65C120.54 25.23 122.14 27.36 123.29 30.04C124.44 32.73 125.01 35.7 125.01 38.96C125.01 42.22 124.46 44.84 123.35 47.27L123.34 47.26ZM160.6 54.85H160.57C159.52 54.74 158.52 54.23 157.5 53.33C156.46 52.4 155.24 50.87 153.85 48.73L146.53 37.74C148.87 37.13 150.92 36.14 152.68 34.78C154.38 33.42 155.23 31.54 155.23 29.13C155.23 26.42 154.12 24.38 151.91 23.01C149.7 21.64 146.43 20.96 142.1 20.96H131.34V21.28C133.04 21.42 134.11 21.61 134.56 21.87C135.02 22.13 135.24 22.72 135.24 23.64V52.44C135.24 53.36 135 53.97 134.52 54.26C134.04 54.56 132.98 54.75 131.34 54.85V55.17H143.32V54.85C141.41 54.75 140.19 54.57 139.66 54.28C139.13 53.99 138.87 53.37 138.87 52.44V38.26H141.55C142.15 38.26 142.62 38.38 142.97 38.62C143.32 38.86 143.74 39.38 144.21 40.19L150.66 50.52C151.82 52.46 152.9 53.75 153.89 54.4C154.87 55.04 156.12 55.37 157.62 55.37C158.69 55.37 159.71 55.31 160.68 55.18V54.86C160.68 54.86 160.63 54.86 160.61 54.86L160.6 54.85ZM141.77 37.55H138.86V21.72H141.24C144.54 21.72 147.07 22.41 148.8 23.79C150.53 25.18 151.41 27.19 151.41 29.84C151.41 32.25 150.53 34.13 148.78 35.49C147.02 36.86 144.69 37.54 141.76 37.54L141.77 37.55ZM160.46 55.18V54.86C162.17 54.77 163.27 54.57 163.76 54.27C164.25 53.97 164.49 53.36 164.49 52.45V23.7C164.49 22.78 164.24 22.17 163.76 21.88C163.28 21.59 162.17 21.39 160.46 21.29V20.97H172.21V21.29C170.5 21.38 169.39 21.58 168.91 21.88C168.43 22.18 168.18 22.79 168.18 23.7V52.45C168.18 53.37 168.43 53.98 168.91 54.27C169.39 54.56 170.5 54.76 172.21 54.86V55.18H160.46ZM204.61 28.81C202.96 26.27 200.66 24.32 197.73 22.98C194.79 21.64 191.43 20.96 187.63 20.96H174.51V21.28C176.14 21.37 177.21 21.56 177.68 21.86C178.16 22.16 178.41 22.77 178.41 23.68V52.44C178.41 53.36 178.17 53.97 177.68 54.26C177.2 54.56 176.14 54.75 174.51 54.85V55.17H187.1C190.77 55.17 194.12 54.45 197.15 53.01C200.24 51.54 202.67 49.47 204.44 46.8C206.21 44.13 207.09 41.08 207.09 37.63C207.09 34.18 206.26 31.33 204.61 28.8V28.81ZM201.73 45.4C200.92 47.36 199.83 48.99 198.45 50.3C197.07 51.61 195.44 52.62 193.6 53.34C191.75 54.06 189.77 54.42 187.68 54.42C186.01 54.42 184.78 54.34 183.99 54.19C183.2 54.04 182.67 53.8 182.41 53.48C182.16 53.16 182.03 52.66 182.03 51.99V21.72H187.01C190.15 21.72 192.92 22.45 195.34 23.93C197.76 25.42 199.63 27.48 200.95 30.1C202.27 32.72 202.93 35.67 202.93 38.96C202.93 41.3 202.53 43.45 201.73 45.41V45.4ZM236.56 54.32C236.02 54.06 235.57 53.64 235.21 53.06C234.85 52.48 234.42 51.5 233.92 50.14L224.95 25.47C224.03 22.96 223.45 21.14 223.2 20.01H222.93C222.2 20.92 221.09 21.56 219.58 21.94L220.43 24.1L211.22 49.66C210.56 51.44 209.84 52.7 209.06 53.46C208.27 54.21 207.26 54.68 206.02 54.85V55.17H215.93V54.85C214.44 54.75 213.37 54.5 212.72 54.08C212.06 53.67 211.73 53.02 211.73 52.17C211.73 51.53 211.9 50.78 212.21 49.92L215.13 41.73H227.06L230.64 51.69C230.88 52.39 231.01 52.91 231.01 53.25C231.01 53.8 230.73 54.2 230.17 54.46C229.61 54.71 228.64 54.85 227.25 54.86V55.18H238.95V54.86C237.97 54.78 237.17 54.6 236.57 54.33L236.56 54.32ZM215.44 40.88L221.09 25.09L226.74 40.88H215.44ZM269.64 28.81C267.99 26.27 265.69 24.32 262.76 22.98C259.82 21.64 256.46 20.96 252.66 20.96H239.53V21.28C241.17 21.37 242.23 21.56 242.71 21.86C243.19 22.16 243.44 22.77 243.44 23.68V52.44C243.44 53.36 243.2 53.97 242.71 54.26C242.22 54.55 241.17 54.75 239.53 54.85V55.17H252.13C255.8 55.17 259.15 54.45 262.18 53.01C265.27 51.54 267.7 49.47 269.47 46.8C271.24 44.13 272.12 41.08 272.12 37.63C272.12 34.18 271.3 31.33 269.65 28.8L269.64 28.81ZM266.76 45.4C265.96 47.36 264.87 48.99 263.48 50.3C262.1 51.61 260.48 52.62 258.63 53.34C256.78 54.06 254.81 54.42 252.71 54.42C251.04 54.42 249.81 54.34 249.01 54.19C248.22 54.04 247.69 53.8 247.44 53.48C247.18 53.16 247.06 52.66 247.06 51.99V21.72H252.04C255.18 21.72 257.96 22.45 260.38 23.93C262.79 25.42 264.67 27.48 265.99 30.1C267.32 32.72 267.97 35.67 267.97 38.96C267.97 41.3 267.57 43.45 266.77 45.41L266.76 45.4ZM274.16 55.18V54.86C275.8 54.77 276.86 54.57 277.34 54.27C277.82 53.97 278.06 53.36 278.06 52.45V23.7C278.06 22.78 277.82 22.17 277.34 21.88C276.86 21.59 275.8 21.39 274.16 21.29V20.97H297.34L298.88 28.73H298.51C297.73 26.77 296.96 25.31 296.2 24.34C295.44 23.37 294.54 22.68 293.48 22.29C292.39 21.92 290.96 21.74 289.17 21.74H281.69V37.48H288.14C289.21 37.48 290.08 37.39 290.76 37.2C291.43 37.02 291.99 36.68 292.43 36.19C292.87 35.7 293.21 35.12 293.44 34.46C293.67 33.8 293.89 32.89 294.11 31.74H294.43V44.16H294.11C293.9 42.94 293.67 41.98 293.43 41.28C293.19 40.58 292.85 39.99 292.41 39.5C291.97 39.01 291.41 38.68 290.75 38.5C290.08 38.32 289.22 38.24 288.15 38.24H281.7V52.51C281.7 53.8 282.4 54.44 283.81 54.44H290.35C292.03 54.44 293.4 54.24 294.46 53.83C295.52 53.42 296.49 52.7 297.39 51.66C298.29 50.62 299.28 49.06 300.36 46.98H300.68L298.2 55.2H274.17L274.16 55.18ZM18.93 128C15.13 128 11.09 127.24 6.82 125.73C5.8 125.29 4.93 125.07 4.22 125.07C3.75 125.07 3.41 125.21 3.19 125.5C2.97 125.79 2.78 126.35 2.61 127.17H1.95L0 110.14H0.66C2.56 115.65 5 119.8 7.98 122.58C10.96 125.36 14.61 126.76 18.93 126.76C23.25 126.76 26.89 125.57 29.57 123.18C32.26 120.8 33.6 117.66 33.6 113.78C33.6 110.8 32.61 108.17 30.62 105.89C28.64 103.6 25.48 101.55 21.15 99.73L16.15 97.62C7.22 93.79 2.76 88.38 2.76 81.38C2.76 76.56 4.38 72.57 7.62 69.43C10.86 66.29 14.83 64.72 19.55 64.72C21.4 64.72 23.06 64.89 24.53 65.24C26 65.59 27.78 66.14 29.84 66.91C31.11 67.41 31.96 67.65 32.4 67.65C33.14 67.65 33.65 66.95 33.93 65.54H34.59L36.2 80.88H35.62C33.97 76.11 31.75 72.43 28.97 69.84C26.19 67.25 23.05 65.95 19.55 65.95C16.05 65.95 13.17 66.99 10.91 69.07C8.65 71.15 7.52 73.95 7.52 77.48C7.52 80.51 8.42 83.11 10.23 85.27C12.03 87.43 15.14 89.44 19.55 91.28L24.51 93.39C33.71 97.3 38.32 102.88 38.32 110.13C38.32 115.23 36.48 119.48 32.8 122.88C29.12 126.28 24.5 127.99 18.93 127.99V128ZM102.05 79.52C99.38 74.83 95.74 71.2 91.12 68.61C86.5 66.02 81.35 64.72 75.64 64.72C69.93 64.72 64.65 66.07 59.93 68.77C55.14 71.55 51.37 75.42 48.63 80.37C45.89 85.31 44.52 90.9 44.52 97.13C44.52 103.36 45.84 108.47 48.48 113.2C51.1 117.89 54.69 121.53 59.25 124.12C63.81 126.71 68.89 128 74.48 128C80.41 128 85.74 126.63 90.48 123.87C95.36 121.14 99.17 117.3 101.93 112.36C104.69 107.41 106.06 101.83 106.06 95.6C106.06 89.37 104.73 84.31 102.05 79.52ZM95.61 112.92C93.62 117.3 90.92 120.67 87.5 123.04C84.09 125.41 80.26 126.6 76.01 126.6C71.44 126.6 67.32 125.18 63.65 122.34C59.96 119.5 57.09 115.66 55.04 110.83C52.98 105.99 51.96 100.64 51.96 94.77C51.96 86.34 54.06 79.46 58.26 74.12C62.46 68.79 67.79 66.13 74.24 66.13C78.89 66.13 83.1 67.55 86.84 70.38C90.53 73.22 93.42 77.06 95.48 81.9C97.55 86.73 98.58 92.08 98.58 97.95C98.58 103.82 97.59 108.53 95.61 112.92ZM149.88 98.49C146.32 95.93 142.15 94.4 137.35 93.9V93.74C141.02 92.91 144.23 91.35 146.98 89.07C149.71 86.81 151.07 83.68 151.07 79.68C151.07 75.16 149.24 71.68 145.58 69.23C141.91 66.77 136.75 65.55 130.08 65.55H109.99V66.13C112.94 66.29 114.85 66.64 115.71 67.18C116.58 67.72 117.02 68.81 117.02 70.47V122.26C117.02 123.91 116.58 125.01 115.71 125.54C114.85 126.08 112.94 126.43 109.99 126.6V127.18H130.9C135.45 127.18 139.53 126.49 143.14 125.11C146.75 123.73 149.62 121.7 151.76 119.01C153.89 116.33 154.96 113.2 154.96 109.65C154.96 104.8 153.27 101.08 149.88 98.49ZM123.55 66.91H129.29C134.11 66.91 137.89 68.1 140.62 70.47C143.35 72.84 144.71 76.23 144.71 80.63C144.71 84.71 143.35 87.89 140.62 90.16C137.89 92.44 134 93.57 128.96 93.57H123.55V66.91ZM143.37 121.74C140.27 124.45 135.95 125.81 130.41 125.81C128.37 125.81 126.87 125.7 125.9 125.46C124.94 125.23 124.3 124.86 124 124.36C123.7 123.87 123.55 123.08 123.55 122.01V94.94H129.91C135.45 94.94 139.85 96.31 143.12 99.05C146.38 101.79 148.02 105.61 148.02 110.52C148.02 115.43 146.47 119.03 143.37 121.74ZM158.64 127.17V126.59C161.59 126.42 163.5 126.07 164.36 125.54C165.22 125.01 165.66 123.91 165.66 122.25V70.46C165.66 68.81 165.23 67.71 164.36 67.17C163.49 66.63 161.58 66.28 158.64 66.12V65.54H200.39L203.16 79.51H202.5C201.09 75.98 199.71 73.34 198.35 71.59C196.99 69.84 195.35 68.61 193.45 67.89C191.49 67.23 188.9 66.9 185.68 66.9H172.2V95.25H183.82C185.75 95.25 187.32 95.08 188.53 94.75C189.74 94.42 190.75 93.81 191.55 92.93C192.35 92.05 192.96 91.01 193.37 89.81C193.78 88.61 194.18 86.98 194.57 84.91H195.15V107.27H194.57C194.18 105.07 193.78 103.34 193.35 102.08C192.92 100.83 192.31 99.76 191.51 98.88C190.71 98 189.71 97.4 188.51 97.08C187.31 96.76 185.75 96.6 183.82 96.6H172.2V122.31C172.2 124.62 173.47 125.78 176 125.78H187.78C190.81 125.78 193.28 125.42 195.18 124.68C197.08 123.95 198.84 122.65 200.45 120.77C202.06 118.9 203.85 116.09 205.8 112.34H206.38L201.92 127.14H158.64V127.17ZM314.43 125.65C313.46 125.18 312.66 124.42 312.01 123.37C311.36 122.33 310.58 120.58 309.67 118.12L293.51 73.69C291.86 69.17 290.81 65.89 290.37 63.85H289.87C288.58 65.48 286.57 66.64 283.84 67.32L285.37 71.21L268.79 117.26C267.61 120.45 266.31 122.73 264.89 124.1C263.47 125.46 261.64 126.29 259.41 126.6V127.18H277.27V126.6C274.59 126.43 272.66 125.97 271.48 125.21C270.3 124.45 269.7 123.3 269.7 121.76C269.7 120.6 269.99 119.25 270.57 117.71L275.82 102.95H297.31L303.76 120.89C304.2 122.16 304.42 123.1 304.42 123.7C304.42 124.7 303.92 125.42 302.92 125.87C301.91 126.33 300.15 126.57 297.64 126.6V127.18H318.73V126.6C316.96 126.46 315.53 126.14 314.43 125.65ZM276.4 101.43L286.57 72.99L296.74 101.43H276.4ZM319.14 127.17V126.59C322.39 126.34 324.59 125.63 325.73 124.46C326.87 123.29 327.45 121.06 327.45 117.78V74.92C327.45 71.64 326.88 69.42 325.73 68.24C324.59 67.07 322.39 66.36 319.14 66.11V65.53H333.28L369.41 115.75V74.91C369.41 71.55 368.72 69.3 367.34 68.17C365.96 67.04 363.07 66.35 358.66 66.1V65.52H379.49V66.1C376.24 66.35 374.04 67.06 372.9 68.23C371.76 69.4 371.18 71.63 371.18 74.91V127.98H370.6L329.31 71.44V117.77C329.31 119.18 329.4 120.33 329.58 121.22C329.76 122.11 330.06 122.91 330.49 123.6C330.92 124.29 331.55 124.83 332.39 125.21C333.23 125.6 334.24 125.89 335.43 126.1C336.61 126.31 338.13 126.47 339.98 126.58V127.16H319.15L319.14 127.17ZM433.05 125.65C432.09 125.18 431.28 124.42 430.64 123.37C429.99 122.33 429.21 120.58 428.3 118.12L412.14 73.69C410.49 69.17 409.44 65.89 409 63.85H408.5C407.21 65.48 405.2 66.64 402.47 67.32L404 71.21L387.42 117.26C386.24 120.45 384.94 122.73 383.52 124.1C382.1 125.46 380.27 126.29 378.04 126.6V127.18H395.9V126.6C393.22 126.43 391.29 125.97 390.11 125.21C388.92 124.45 388.33 123.3 388.33 121.76C388.33 120.6 388.62 119.25 389.2 117.71L394.45 102.95H415.94L422.39 120.89C422.83 122.16 423.05 123.1 423.05 123.7C423.05 124.7 422.55 125.42 421.54 125.87C420.54 126.33 418.78 126.57 416.27 126.6V127.18H437.35V126.6C435.59 126.46 434.16 126.14 433.05 125.65ZM395.03 101.43L405.2 72.99L415.36 101.43H395.03ZM300.43 134.23C262.13 158.15 246.31 104.98 233.14 96.47C234.55 96.33 235.98 96.11 237.01 95.76C241.14 94.35 244.92 92.88 248.09 90.43C251.14 87.98 252.67 84.59 252.67 80.26C252.67 75.38 250.68 71.71 246.7 69.25C242.72 66.78 236.83 65.55 229.03 65.55H209.65V66.13C212.7 66.37 214.64 66.73 215.45 67.2C216.27 67.67 216.67 68.73 216.67 70.38V122.26C216.67 123.91 216.24 125.01 215.37 125.54C214.5 126.08 212.59 126.43 209.65 126.6V127.18H231.22V126.6C227.78 126.43 225.58 126.09 224.63 125.56C223.68 125.04 223.2 123.94 223.2 122.26V96.71H224.57C225.68 96.71 227.71 97.51 228.62 98.13C240.83 106.61 254.21 164.78 300.67 135.38L300.43 134.23ZM228.45 95.43H223.2V66.91H227.5C233.45 66.91 237.99 68.16 241.12 70.65C244.25 73.15 245.81 76.78 245.81 81.54C245.81 85.87 244.23 89.27 241.08 91.73C237.92 94.2 233.71 95.43 228.45 95.43Z" fill="#BE8D59"/>
<path d="M304.82 29.63C311.29 2.33 346.75 8.53 370.96 8.53C405 8.53 431.16 7.87 437.35 0C432.15 28.51 406.12 24.85 372.21 22.33C306.71 17.45 303.9 33.52 304.82 29.64V29.63Z" fill="#BE8D59"/>
<path d="M306.65 35.26C316.29 23.37 330.73 25.6 354.94 25.62C388.07 25.66 409.28 29.31 416.53 27.52C405.49 41.87 388.39 39.23 355.25 34.86C330.63 31.61 315.04 33.48 306.65 35.26Z" fill="#BE8D59"/>
<path d="M308.05 40.41C313.33 36.38 321.16 36.25 343.08 37.32C363.66 38.32 378.4 43.59 385.64 41.8C378.39 47.71 353.1 52.01 338.51 47.14C321.48 41.45 314.45 39.69 308.05 40.42V40.41Z" fill="#BE8D59"/>
<path d="M309.64 43.73C309.64 43.73 318.64 44.5 326.59 47.46C334.54 50.41 342.07 51.89 346.08 51.61C343.13 53.58 334.82 58.57 325.05 54.85C315.28 51.13 309.64 43.74 309.64 43.74V43.73Z" fill="#BE8D59"/>
</g>
</svg>
