<svg width="93" height="55" viewBox="0 0 93 55" fill="none" xmlns="http://www.w3.org/2000/svg">
<g id="logo azul">
<g id="Group">
<path id="Vector" d="M47.3723 14.84C47.0849 14.749 46.7782 14.7011 46.4604 14.7011C46.1426 14.7011 45.8343 14.7506 45.5469 14.84L46.4604 0L47.3739 14.84H47.3723Z" fill="#BDEAF1"/>
<path id="Vector_2" d="M47.3723 20.6342L46.4604 35.4742L45.5469 20.6342C45.8343 20.7252 46.141 20.7731 46.4604 20.7731C46.7798 20.7731 47.0849 20.7236 47.3723 20.6342Z" fill="#BDEAF1"/>
<path id="Vector_3" d="M49.3574 18.649C49.4485 18.3615 49.4964 18.0549 49.4964 17.7371C49.4964 17.4193 49.4469 17.1126 49.3574 16.8252L64.1974 17.7371L49.3574 18.649Z" fill="#BDEAF1"/>
<path id="Vector_4" d="M43.4241 17.7371C43.4241 18.0549 43.4736 18.3615 43.563 18.649L28.7246 17.7371L43.563 16.8252C43.4736 17.1126 43.4241 17.4193 43.4241 17.7371Z" fill="#BDEAF1"/>
<path id="Vector_5" d="M54.0015 10.1957L48.9978 16.0698C48.7711 15.7232 48.474 15.4261 48.1274 15.1993L54.0015 10.1957Z" fill="#BDEAF1"/>
<path id="Vector_6" d="M44.7944 20.2748L38.9204 25.2785L43.924 19.4044C44.1524 19.751 44.4495 20.0481 44.7944 20.2748Z" fill="#BDEAF1"/>
<path id="Vector_7" d="M54.0015 25.2785L48.1274 20.2748C48.474 20.0481 48.7711 19.751 48.9978 19.4044L54.0015 25.2785Z" fill="#BDEAF1"/>
<path id="Vector_8" d="M44.7944 15.1993C44.4479 15.4261 44.1508 15.7232 43.924 16.0698L38.9204 10.1957L44.7944 15.1993Z" fill="#BDEAF1"/>
</g>
<g id="Group_2">
<path id="Vector_9" d="M9.90026 46.5132V46.9731H12.5977C12.882 46.9731 13.0257 47.1488 13.0257 47.5002V49.4406C13.0257 50.6464 12.8069 51.6286 12.3677 52.3856C11.9285 53.141 11.3424 53.6904 10.6078 54.029C9.87311 54.3692 9.02346 54.54 8.05883 54.54C6.78596 54.54 5.72231 54.1999 4.86788 53.5195C4.01185 52.8408 3.3826 51.9304 2.97694 50.7901C2.56969 49.6498 2.36846 48.3881 2.36846 47.0067C2.36846 45.6252 2.57608 44.3922 2.99291 43.2408C3.40975 42.0893 4.039 41.163 4.88385 40.4603C5.7287 39.7591 6.7636 39.4078 7.99335 39.4078C9.41794 39.4078 10.6413 39.7863 11.6602 40.5433C12.6808 41.2987 13.4969 42.4454 14.1117 43.9802H14.5717V39.0468H14.1117C14.1117 39.2433 14.083 39.5068 14.0287 39.8358C13.9744 40.1648 13.8913 40.4938 13.7827 40.8228C13.6725 41.1518 13.5528 41.3929 13.4202 41.5463C12.8724 40.6902 12.0994 40.045 11.1013 39.6058C10.1031 39.1666 9.06658 38.9478 7.99335 38.9478C6.26053 38.9478 4.79601 39.3263 3.6014 40.0817C2.40519 40.8388 1.50764 41.8321 0.903943 43.0587C0.30025 44.2884 0 45.6252 0 47.0721C0 48.5191 0.30025 49.8143 0.903943 51.0201C1.50764 52.2259 2.41637 53.1905 3.63494 53.914C4.85191 54.6375 6.32601 55 8.05883 55C8.84778 55 9.57605 54.901 10.2452 54.7045C10.9144 54.5065 11.5229 54.2334 12.0723 53.8821C12.4668 53.6185 12.8277 53.3231 13.1567 52.9941C13.4857 52.6651 13.7827 52.3025 14.0447 51.9081C14.2203 52.3025 14.3577 52.7258 14.4567 53.1746C14.5557 53.6233 14.6148 54.112 14.6372 54.572H15.0652V47.5002C15.0652 47.1488 15.2185 46.9731 15.5251 46.9731H17.4001V46.5132H9.90026Z" fill="#BDEAF1"/>
<path id="Vector_10" d="M23.0505 46.5132C23.6638 46.5132 24.1301 46.4094 24.4479 46.2001C24.7658 45.9925 24.9686 45.713 25.0564 45.3617C25.1443 45.0103 25.1874 44.5504 25.1874 43.9802V42.8623H25.6473V50.7901H25.1874V49.7377C25.1874 49.0797 25.1427 48.559 25.0564 48.1757C24.9686 47.7924 24.7706 47.497 24.4639 47.2877C24.1573 47.0801 23.6845 46.9747 23.0489 46.9747H19.5625V53.5866C19.5625 53.938 19.7158 54.112 20.0225 54.112H26.6998C27.3354 54.112 27.8353 54.0018 28.1963 53.783C28.5588 53.5642 28.8207 53.1809 28.9852 52.6315C29.1497 52.0837 29.2312 51.3156 29.2312 50.3286V48.6181H29.6592V54.572H14.6595V54.112H16.897C17.2036 54.112 17.3569 53.9364 17.3569 53.5866V40.4283C17.3569 40.077 17.2036 39.9013 16.897 39.9013H14.3433V39.4413H29.3302V45.0007H28.9022V43.4883C28.9022 42.4805 28.8207 41.7235 28.6562 41.2189C28.4917 40.7142 28.217 40.3692 27.8337 40.1824C27.4504 39.9955 26.9074 39.9029 26.2047 39.9029H20.0209C19.7142 39.9029 19.5609 40.0786 19.5609 40.4299V46.5148H23.0473L23.0505 46.5132Z" fill="#BDEAF1"/>
<path id="Vector_11" d="M23.394 36.7231L23.2918 36.6608C23.1209 36.5762 22.942 36.5346 22.7551 36.5346C22.5507 36.5346 22.3367 36.5969 22.1163 36.7231L19.2783 38.2467H19.6616C21.6899 37.7181 23.8204 37.7197 25.8487 38.2467H26.232L23.394 36.7231Z" fill="#BDEAF1"/>
<path id="Vector_12" d="M41.3064 39.4413V39.9013H42.7868C43.1382 39.9013 43.4289 40.0322 43.6588 40.2958C43.8888 40.5593 44.0038 40.9649 44.0038 41.5127V51.5791L34.1355 39.4413H28.8013V39.9013H29.9256C30.5612 39.9013 31.0324 39.962 31.3406 40.0817C31.6473 40.2031 31.8996 40.4283 32.096 40.7573V52.5006C32.096 52.8951 32.0146 53.2129 31.8501 53.454C31.6856 53.6952 31.4923 53.8645 31.2735 53.9635C31.0547 54.0625 30.8359 54.112 30.6155 54.112H29.2341V54.572H35.4195V54.112H33.9391C33.5653 54.112 33.2475 53.9811 32.984 53.7176C32.7221 53.454 32.5895 53.0484 32.5895 52.5006V41.1837L43.9383 54.77H44.4973V41.5127C44.4973 40.9873 44.6299 40.5864 44.8934 40.3133C45.1473 40.0466 45.4539 39.9093 45.8133 39.9013H47.2283V39.4413H41.3064Z" fill="#BDEAF1"/>
<path id="Vector_13" d="M72.8791 50.3621C72.8791 51.2836 72.6267 52.0885 72.1221 52.7801C71.6174 53.47 70.9434 53.997 70.0986 54.358C69.2537 54.7205 68.3386 54.901 67.3516 54.901C66.5179 54.901 65.6587 54.7477 64.7707 54.441C63.8812 54.1344 63.081 53.6792 62.3687 53.0755C62.027 52.7865 61.7315 52.4686 61.4776 52.1205C61.3865 52.392 61.3051 52.6507 61.2332 52.8951C61.0799 53.4429 60.9489 53.914 60.8387 54.572H45.8135V54.112H48.051C48.3576 54.112 48.5109 53.9363 48.5109 53.585V40.4283C48.5109 40.077 48.3576 39.9013 48.051 39.9013H45.8135V39.4413H60.4842V45.0007H60.0578V43.4867C60.0578 42.479 59.9747 41.7219 59.8102 41.2173C59.6457 40.7126 59.371 40.3676 58.9877 40.1808C58.6044 39.9955 58.0614 39.9013 57.3603 39.9013H51.1749C50.8682 39.9013 50.7149 40.077 50.7149 40.4283V46.5132H54.2013C54.8162 46.5132 55.2809 46.4093 55.6003 46.2001C55.9182 45.9925 56.121 45.713 56.2088 45.3617C56.2951 45.0119 56.3398 44.5504 56.3398 43.9802V42.8622H56.7997V50.7901H56.3398V49.7376C56.3398 49.0797 56.2951 48.559 56.2088 48.1741C56.121 47.7908 55.9229 47.4954 55.6163 47.2861C55.3081 47.0785 54.8369 46.9731 54.2013 46.9731H50.7149V53.585C50.7149 53.9363 50.8682 54.112 51.1749 54.112H57.8538C58.4894 54.112 58.9877 54.0018 59.3503 53.783C59.7112 53.5642 59.9747 53.1793 60.1392 52.6315C60.3037 52.0837 60.3852 51.3156 60.3852 50.3286V48.6181H60.8132C60.8132 49.4406 61.0144 50.2567 61.4249 50.969C61.69 51.4274 62.0046 51.8442 62.3528 52.2211C63.0315 52.9558 63.8157 53.5083 64.7037 53.8821C65.5916 54.2542 66.4972 54.441 67.4187 54.441C68.5366 54.441 69.4789 54.1567 70.2471 53.585C71.0233 53.0085 71.4066 52.2083 71.3986 51.1814C71.3922 50.6033 71.1558 50.0587 70.7406 49.6546C70.3014 49.2266 69.7472 48.8656 69.0796 48.5686C68.4105 48.2731 67.5273 47.9393 66.4317 47.5656C65.1588 47.128 64.1335 46.7272 63.3557 46.3646C62.5764 46.0037 61.9184 45.5326 61.3817 44.9512C60.8435 44.3699 60.5752 43.6512 60.5752 42.7968C60.5752 41.9423 60.8276 41.2939 61.3322 40.7238C61.8369 40.1536 62.5173 39.7208 63.3717 39.4237C64.2277 39.1283 65.17 38.9798 66.2001 38.9798C67.0561 38.9798 67.8946 39.1011 68.7171 39.3423C69.5396 39.5835 70.3781 39.9891 71.2341 40.5593C71.4082 40.4714 71.5727 40.2686 71.7276 39.9508C71.8122 39.7767 71.8761 39.6058 71.9208 39.4413H72.4175V42.5652H71.9911C71.266 41.5127 70.3892 40.7286 69.3591 40.2143C68.3274 39.6984 67.2749 39.4413 66.2001 39.4413C65.0167 39.4413 64.0345 39.6489 63.2567 40.0658C62.4773 40.4826 62.0892 41.0863 62.0892 41.8753C62.0892 42.4454 62.2969 42.9341 62.7137 43.3382C63.1305 43.7454 63.6512 44.084 64.2772 44.3587C64.9017 44.6334 65.7513 44.956 66.8262 45.3297C68.1422 45.7897 69.1994 46.2065 69.9995 46.5786C70.8013 46.9523 71.48 47.4506 72.039 48.0751C72.5996 48.7011 72.8791 49.4629 72.8791 50.3621Z" fill="#BDEAF1"/>
<path id="Vector_14" d="M78.2498 39.9013H80.7173V39.4413H72.2017V39.9013H75.1259C75.4325 39.9013 75.5859 40.077 75.5859 40.4283V53.585C75.5859 53.9364 75.4325 54.112 75.1259 54.112H72.6584V54.572H80.7173V54.112H78.2498C77.9431 54.112 77.7898 53.9364 77.7898 53.585V40.4283C77.7898 40.077 77.9431 39.9013 78.2498 39.9013Z" fill="#BDEAF1"/>
<path id="Vector_15" d="M92.0824 48.0751C91.5234 47.4506 90.8431 46.9523 90.0429 46.5786C89.2428 46.2065 88.1855 45.7897 86.8695 45.3297C85.7947 44.956 84.9451 44.6334 84.319 44.3587C83.6946 44.084 83.1739 43.7454 82.7571 43.3382C82.3402 42.9341 82.1326 42.4454 82.1326 41.8753C82.1326 41.0863 82.5207 40.4826 83.3001 40.0658C84.0779 39.6489 85.0601 39.4413 86.2435 39.4413C87.3183 39.4413 88.3708 39.6984 89.4025 40.2143C90.4326 40.7286 91.3094 41.5127 92.0329 42.5652H92.4609V39.0468H92.0329C92.0121 39.3311 91.9227 39.633 91.771 39.9508C91.616 40.2686 91.4515 40.4714 91.2775 40.5593C90.4214 39.9891 89.583 39.5835 88.7605 39.3423C87.938 39.1011 87.0995 38.9798 86.2435 38.9798C85.2134 38.9798 84.2695 39.1283 83.4151 39.4237C82.559 39.7208 81.8803 40.1536 81.3756 40.7238C80.8709 41.2939 80.6186 41.9855 80.6186 42.7968C80.6186 43.6512 80.8869 44.3699 81.4251 44.9512C81.9617 45.5326 82.6197 46.0037 83.3991 46.3646C84.1769 46.7272 85.2022 47.128 86.4751 47.5656C87.5707 47.9393 88.4522 48.2731 89.123 48.5686C89.7906 48.8656 90.3448 49.2266 90.784 49.6546C91.2216 50.0826 91.442 50.6033 91.442 51.2165C91.442 52.2259 91.0571 53.0148 90.2905 53.585C89.5223 54.1567 88.58 54.441 87.4605 54.441C86.5405 54.441 85.635 54.2542 84.747 53.8821C83.8591 53.5083 83.0749 52.9558 82.3945 52.2211C81.7158 51.4864 81.2223 50.5921 80.9157 49.5396H80.4541V54.572H80.8821C80.9923 53.914 81.1233 53.4429 81.2766 52.8951C81.3485 52.6507 81.4283 52.3952 81.5193 52.1237C81.7733 52.4702 82.0719 52.7865 82.4121 53.0755C83.1244 53.6792 83.9245 54.1344 84.8125 54.441C85.7005 54.7477 86.5613 54.901 87.395 54.901C88.382 54.901 89.2971 54.7205 90.1419 54.358C90.9852 53.997 91.6608 53.47 92.1654 52.7801C92.6685 52.0885 92.9209 51.2836 92.9209 50.3621C92.9209 49.4406 92.6414 48.7011 92.0824 48.0751Z" fill="#BDEAF1"/>
</g>
</g>
</svg>
